<?xml version="1.0" standalone="no"?>
<!DOCTYPE svg PUBLIC "-//W3C//DTD SVG 20010904//EN"
 "http://www.w3.org/TR/2001/REC-SVG-20010904/DTD/svg10.dtd">
<svg version="1.0" xmlns="http://www.w3.org/2000/svg"
 width="1167.000000pt" height="1167.000000pt" viewBox="0 0 1167.000000 1167.000000"
 preserveAspectRatio="xMidYMid meet">
<metadata>
Created by potrace 1.11, written by Peter Selinger 2001-2013
</metadata>
<g transform="translate(0.000000,1167.000000) scale(0.100000,-0.100000)"
fill="#000000" stroke="none">
<path d="M5715 11624 c-141 -24 -254 -103 -307 -215 -41 -86 -50 -130 -63
-291 -6 -74 -24 -125 -52 -149 -34 -29 -124 -63 -197 -74 -21 -3 -48 -7 -60
-10 -47 -11 -85 -16 -157 -21 -117 -10 -156 19 -209 154 -66 170 -157 286
-265 337 -158 74 -441 14 -584 -125 -115 -111 -144 -267 -91 -486 42 -177 38
-194 -62 -262 -26 -18 -49 -32 -51 -32 -3 0 -56 -28 -118 -63 -218 -121 -252
-121 -350 -6 -89 105 -193 202 -249 231 -74 39 -163 54 -236 39 -168 -33 -356
-179 -428 -331 -27 -58 -31 -75 -30 -155 0 -49 4 -103 8 -120 11 -47 61 -148
104 -212 83 -122 89 -155 42 -224 -39 -58 -244 -269 -294 -303 -66 -44 -96
-38 -234 52 -108 70 -204 104 -303 108 -101 4 -156 -11 -237 -64 -143 -94
-267 -308 -263 -456 2 -80 21 -141 69 -216 35 -55 149 -172 207 -212 53 -36
78 -82 72 -129 -5 -39 -113 -269 -185 -396 -38 -66 -82 -99 -112 -83 -22 12
-171 47 -243 58 -270 41 -455 -81 -526 -348 -48 -179 -22 -335 75 -448 38 -44
148 -121 204 -142 193 -71 205 -88 204 -264 -2 -213 -35 -335 -106 -387 -40
-28 -96 -43 -200 -53 -137 -13 -253 -61 -326 -136 -90 -91 -124 -196 -118
-360 4 -115 8 -140 33 -203 72 -182 213 -265 478 -281 119 -8 162 -34 194
-120 10 -28 24 -87 30 -131 7 -44 14 -96 17 -115 6 -43 6 -138 0 -165 -16 -75
-51 -105 -173 -154 -89 -35 -176 -91 -224 -144 -129 -138 -145 -351 -42 -563
57 -118 159 -202 279 -230 68 -15 212 -10 294 11 113 29 169 22 224 -29 40
-36 187 -280 210 -349 27 -81 3 -133 -102 -224 -176 -151 -234 -251 -234 -398
0 -95 23 -166 87 -265 83 -129 191 -219 299 -247 56 -15 172 -11 228 8 70 23
161 73 196 107 22 20 67 41 111 51 67 15 141 -29 277 -163 187 -186 196 -235
74 -416 -162 -240 -133 -457 85 -633 191 -153 396 -180 557 -71 54 37 93 75
182 179 80 93 140 105 276 56 158 -58 304 -151 337 -214 20 -40 20 -108 -2
-167 -9 -25 -18 -61 -21 -80 -3 -19 -9 -53 -13 -75 -24 -142 60 -319 192 -402
236 -149 455 -157 608 -21 42 37 103 130 133 204 78 192 100 216 212 228 27 3
62 -1 179 -18 69 -11 176 -36 216 -52 77 -31 98 -68 104 -184 6 -111 15 -168
36 -229 69 -199 231 -297 483 -290 288 8 433 159 451 470 9 143 24 184 79 218
37 23 160 57 235 66 26 3 58 8 72 10 68 14 157 8 201 -13 49 -24 74 -61 123
-184 39 -100 72 -154 129 -213 84 -85 181 -121 302 -110 97 8 252 67 329 125
56 42 129 127 152 177 40 87 43 204 9 322 -35 123 -38 146 -26 190 17 65 73
114 205 179 109 54 218 92 265 92 72 0 90 -13 230 -171 30 -33 74 -75 99 -92
114 -78 258 -94 378 -41 17 8 34 14 38 14 20 0 157 102 208 155 109 112 148
246 113 382 -18 72 -41 121 -101 213 -79 122 -88 174 -42 252 44 75 226 248
302 287 81 42 106 36 245 -55 155 -101 274 -127 406 -89 196 57 379 318 369
524 -6 138 -38 195 -190 345 -138 136 -155 159 -155 204 0 45 18 85 106 233
131 222 157 239 307 206 297 -63 497 4 599 200 54 103 67 151 75 264 7 99 -15
182 -66 258 -38 56 -128 141 -149 141 -6 0 -12 3 -14 8 -5 11 -73 46 -160 82
-121 50 -136 86 -115 270 3 30 9 82 12 115 10 89 32 173 56 206 28 40 77 58
171 64 79 5 128 11 160 21 9 3 27 7 40 9 13 3 50 18 84 35 155 76 237 241 229
460 -4 134 -36 224 -106 304 -87 99 -186 138 -407 160 -108 11 -176 61 -206
153 -19 59 -24 95 -32 249 -10 179 10 218 133 264 90 33 123 50 186 94 204
140 246 412 104 679 -106 201 -303 259 -583 172 -44 -14 -99 -25 -123 -25 -38
0 -49 5 -81 39 -20 21 -54 72 -75 112 -21 41 -58 112 -82 159 -48 91 -74 175
-64 201 9 24 51 70 101 110 171 138 242 252 246 394 3 98 -17 167 -76 266
-107 176 -259 276 -415 271 -99 -2 -195 -41 -337 -134 -145 -94 -169 -87 -356
111 -70 74 -132 139 -138 146 -21 20 -41 70 -39 95 2 30 11 48 80 154 84 130
109 202 110 316 0 101 -12 144 -62 220 -64 97 -207 206 -323 246 -117 41 -246
28 -344 -33 -44 -28 -154 -136 -225 -222 -65 -78 -113 -93 -198 -60 -65 24
-310 167 -352 205 -42 38 -46 45 -47 92 -1 32 8 82 23 129 35 112 41 251 12
336 -36 106 -107 183 -225 242 -104 52 -201 74 -306 71 -75 -3 -97 -8 -154
-36 -97 -48 -180 -139 -235 -260 -66 -146 -95 -194 -129 -211 -45 -25 -112
-24 -247 2 -273 52 -320 85 -328 232 -15 291 -129 457 -350 507 -71 17 -179
18 -260 4z"/>
</g>
</svg>
